<svg xmlns="http://www.w3.org/2000/svg" viewBox="0 0 320 320" preserveAspectRatio="none">
  <defs>
    <linearGradient id="oak-base" x1="0" y1="0" x2="1" y2="1">
      <stop offset="0%" stop-color="#f6e8cf" />
      <stop offset="22%" stop-color="#ecd7b3" />
      <stop offset="52%" stop-color="#cf9b5d" />
      <stop offset="76%" stop-color="#f3dfbe" />
      <stop offset="100%" stop-color="#dbab71" />
    </linearGradient>
    <filter id="oak-noise" x="-20%" y="-20%" width="140%" height="140%">
      <feTurbulence
        type="fractalNoise"
        baseFrequency="0.85 0.025"
        numOctaves="2"
        seed="11"
      />
      <feColorMatrix
        type="matrix"
        values="
          0.42 0 0 0 0
          0 0.34 0 0 0
          0 0 0.24 0 0
          0 0 0 0.22 0"
      />
    </filter>
  </defs>
  <rect width="320" height="320" fill="url(#oak-base)" />
  <g opacity="0.27" stroke="#b88246" stroke-linecap="round" fill="none">
    <path d="M-10 54C38 44 94 44 166 56c68 10 122 8 180-4" />
    <path d="M-16 92c66-16 128-14 204 2 58 12 102 12 154 4" />
    <path d="M-18 132c74-20 136-18 214 4 54 16 104 18 154 8" />
    <path d="M-14 172c80-18 146-18 226 8 48 14 92 14 136 8" />
    <path d="M-12 214c82-18 154-16 236 10 42 12 82 12 120 8" />
    <path d="M-10 256c86-18 162-16 248 10 34 10 68 10 102 8" />
  </g>
  <rect width="320" height="320" filter="url(#oak-noise)" />
</svg>
